<svg id="visual" viewBox="0 0 960 540" width="960" height="540" xmlns="http://www.w3.org/2000/svg" xmlns:xlink="http://www.w3.org/1999/xlink" version="1.1"><path d="M0 389L22.8 386.7C45.7 384.3 91.3 379.7 137 384.8C182.7 390 228.3 405 274 409.5C319.7 414 365.3 408 411.2 399C457 390 503 378 548.8 380.7C594.7 383.3 640.3 400.7 686 402.5C731.7 404.3 777.3 390.7 823 388.2C868.7 385.7 914.3 394.3 937.2 398.7L960 403L960 541L937.2 541C914.3 541 868.7 541 823 541C777.3 541 731.7 541 686 541C640.3 541 594.7 541 548.8 541C503 541 457 541 411.2 541C365.3 541 319.7 541 274 541C228.3 541 182.7 541 137 541C91.3 541 45.7 541 22.8 541L0 541Z" fill="#ee8926"></path><path d="M0 419L22.8 415.2C45.7 411.3 91.3 403.7 137 405.5C182.7 407.3 228.3 418.7 274 424.3C319.7 430 365.3 430 411.2 430.8C457 431.7 503 433.3 548.8 432.3C594.7 431.3 640.3 427.7 686 425.3C731.7 423 777.3 422 823 419.3C868.7 416.7 914.3 412.3 937.2 410.2L960 408L960 541L937.2 541C914.3 541 868.7 541 823 541C777.3 541 731.7 541 686 541C640.3 541 594.7 541 548.8 541C503 541 457 541 411.2 541C365.3 541 319.7 541 274 541C228.3 541 182.7 541 137 541C91.3 541 45.7 541 22.8 541L0 541Z" fill="#ec8f26"></path><path d="M0 406L22.8 407.3C45.7 408.7 91.3 411.3 137 416.5C182.7 421.7 228.3 429.3 274 433.8C319.7 438.3 365.3 439.7 411.2 435.5C457 431.3 503 421.7 548.8 420C594.7 418.3 640.3 424.7 686 427.8C731.7 431 777.3 431 823 435C868.7 439 914.3 447 937.2 451L960 455L960 541L937.2 541C914.3 541 868.7 541 823 541C777.3 541 731.7 541 686 541C640.3 541 594.7 541 548.8 541C503 541 457 541 411.2 541C365.3 541 319.7 541 274 541C228.3 541 182.7 541 137 541C91.3 541 45.7 541 22.8 541L0 541Z" fill="#ea9626"></path><path d="M0 465L22.8 461.7C45.7 458.3 91.3 451.7 137 446.8C182.7 442 228.3 439 274 437.8C319.7 436.7 365.3 437.3 411.2 441.7C457 446 503 454 548.8 454C594.7 454 640.3 446 686 443.3C731.7 440.7 777.3 443.3 823 445.5C868.7 447.7 914.3 449.3 937.2 450.2L960 451L960 541L937.2 541C914.3 541 868.7 541 823 541C777.3 541 731.7 541 686 541C640.3 541 594.7 541 548.8 541C503 541 457 541 411.2 541C365.3 541 319.7 541 274 541C228.3 541 182.7 541 137 541C91.3 541 45.7 541 22.8 541L0 541Z" fill="#e89c27"></path><path d="M0 464L22.8 464.2C45.7 464.3 91.3 464.7 137 463.2C182.7 461.7 228.3 458.3 274 457C319.7 455.7 365.3 456.3 411.2 455.8C457 455.3 503 453.7 548.8 453.2C594.7 452.7 640.3 453.3 686 456.7C731.7 460 777.3 466 823 472.2C868.7 478.3 914.3 484.7 937.2 487.8L960 491L960 541L937.2 541C914.3 541 868.7 541 823 541C777.3 541 731.7 541 686 541C640.3 541 594.7 541 548.8 541C503 541 457 541 411.2 541C365.3 541 319.7 541 274 541C228.3 541 182.7 541 137 541C91.3 541 45.7 541 22.8 541L0 541Z" fill="#e5a229"></path><path d="M0 497L22.8 496.8C45.7 496.7 91.3 496.3 137 497.7C182.7 499 228.3 502 274 501.2C319.7 500.3 365.3 495.7 411.2 495.3C457 495 503 499 548.8 498.2C594.7 497.3 640.3 491.7 686 487.8C731.7 484 777.3 482 823 482.2C868.7 482.3 914.3 484.7 937.2 485.8L960 487L960 541L937.2 541C914.3 541 868.7 541 823 541C777.3 541 731.7 541 686 541C640.3 541 594.7 541 548.8 541C503 541 457 541 411.2 541C365.3 541 319.7 541 274 541C228.3 541 182.7 541 137 541C91.3 541 45.7 541 22.8 541L0 541Z" fill="#e3a72c"></path><path d="M0 505L22.8 504.7C45.7 504.3 91.3 503.7 137 502.7C182.7 501.7 228.3 500.3 274 499.7C319.7 499 365.3 499 411.2 500C457 501 503 503 548.8 504.3C594.7 505.7 640.3 506.3 686 507C731.7 507.7 777.3 508.3 823 507.7C868.7 507 914.3 505 937.2 504L960 503L960 541L937.2 541C914.3 541 868.7 541 823 541C777.3 541 731.7 541 686 541C640.3 541 594.7 541 548.8 541C503 541 457 541 411.2 541C365.3 541 319.7 541 274 541C228.3 541 182.7 541 137 541C91.3 541 45.7 541 22.8 541L0 541Z" fill="#e0ad30"></path></svg>